<?xml version="1.0" encoding="UTF-8"?>
<svg version="1.1" xmlns="http://www.w3.org/2000/svg" width="512" height="512">
<path d="M0 0 C1.60656715 -0.00361794 1.60656715 -0.00361794 3.24559021 -0.00730896 C5.50580556 -0.00633097 7.766045 0.00705095 10.02612305 0.03198242 C13.48764236 0.06632241 16.94661331 0.05262954 20.40820312 0.03320312 C22.60547963 0.04010068 24.80274954 0.04977224 27 0.0625 C28.03548477 0.05754013 29.07096954 0.05258026 30.13783264 0.04747009 C37.28988793 0.16489195 37.28988793 0.16489195 40.56958008 2.52905273 C42.09125188 4.87161568 42.64691312 6.49477008 43.05859375 9.25390625 C43.27515625 10.67509766 43.27515625 10.67509766 43.49609375 12.125 C44.39005456 19.28466828 45.19142737 26.45199947 45.93359375 33.62890625 C46.79726562 33.73847656 47.6609375 33.84804688 48.55078125 33.9609375 C53.10741064 34.86068764 56.94747419 36.79194651 61.12890625 38.765625 C63.77924893 39.85309638 63.77924893 39.85309638 65.86328125 39.11328125 C68.95988127 36.89307746 71.96177481 34.57570031 74.93359375 32.19140625 C76.16247642 31.21318479 77.39163575 30.23531076 78.62109375 29.2578125 C79.16121094 28.8254126 79.70132813 28.3930127 80.2578125 27.94750977 C80.81082031 27.51237061 81.36382812 27.07723145 81.93359375 26.62890625 C82.5663623 26.09869873 83.19913086 25.56849121 83.85107422 25.0222168 C86.18872556 23.45821021 87.79943765 23.09966066 90.56640625 22.70703125 C96.08716869 21.72529303 100.74362809 19.72360882 105.80859375 17.37890625 C130.81066162 6.25344494 157.02591558 1.19612029 184.30859375 1.25390625 C185.18733154 1.2537854 186.06606934 1.25366455 186.97143555 1.25354004 C201.30150408 1.28153608 214.93687941 2.39404637 228.93359375 5.62890625 C230.37737566 5.93337726 231.82137407 6.23682412 233.265625 6.5390625 C249.65700254 10.14295264 265.24678661 16.59672228 279.93359375 24.62890625 C280.62163086 25.0038623 281.30966797 25.37881836 282.01855469 25.76513672 C297.67536408 34.39903643 311.65398751 44.79471307 324.49023438 57.23242188 C325.83987477 58.53823091 327.20646377 59.82645852 328.57421875 61.11328125 C339.45828166 71.5866248 348.16788188 83.72752556 355.93359375 96.62890625 C356.30726074 97.24459473 356.68092773 97.8602832 357.06591797 98.49462891 C370.69428081 121.15432473 378.46026972 145.66656242 382.93359375 171.62890625 C383.12050781 172.70785156 383.30742187 173.78679687 383.5 174.8984375 C388.12529733 214.69266231 381.42415689 253.81350672 364.109375 289.87109375 C363.0996325 292.23945989 362.38813776 294.49397424 361.66796875 296.95703125 C360.02276385 301.99563463 357.29249899 305.5211447 353.87109375 309.50390625 C352.79612083 310.7923399 351.72187298 312.08137893 350.6484375 313.37109375 C350.175271 313.92651855 349.70210449 314.48194336 349.21459961 315.05419922 C346.48012342 318.30285903 346.48012342 318.30285903 346.1484375 322.39453125 C346.99383441 325.87706179 348.1529684 329.05744527 349.49609375 332.37890625 C351.93359375 338.42777311 351.93359375 338.42777311 351.93359375 340.62890625 C352.949375 340.67789062 353.96515625 340.726875 355.01171875 340.77734375 C378.0174346 341.98034864 378.0174346 341.98034864 382.19921875 345.578125 C384.71949839 348.55818538 385.06067139 350.19510881 385.07885742 354.01513672 C385.0884272 355.37697586 385.0884272 355.37697586 385.09819031 356.7663269 C385.09985954 358.24131149 385.09985954 358.24131149 385.1015625 359.74609375 C385.1048909 360.75479523 385.1082193 361.7634967 385.11164856 362.80276489 C385.1167178 364.93963158 385.11905689 367.07650621 385.11889648 369.21337891 C385.12108014 372.48353132 385.13922821 375.75334495 385.15820312 379.0234375 C385.16113759 381.09765509 385.16312203 383.17187429 385.1640625 385.24609375 C385.17124802 386.22536835 385.17843353 387.20464294 385.18583679 388.21359253 C385.18276016 389.12778961 385.17968353 390.04198669 385.17651367 390.98388672 C385.17793869 391.78615692 385.17936371 392.58842712 385.18083191 393.41500854 C384.89871293 395.94124706 384.31824746 397.5004735 382.93359375 399.62890625 C378.07412329 402.23154398 373.47185495 403.24084408 367.99609375 403.81640625 C366.99932617 403.93918945 366.99932617 403.93918945 365.98242188 404.06445312 C361.27727237 404.60753052 356.66852592 404.6976818 351.93359375 404.62890625 C351.75183594 405.26957031 351.57007813 405.91023438 351.3828125 406.5703125 C350.19934289 410.64266176 349.04539725 414.56092212 347.18359375 418.37890625 C345.69974898 422.23690265 345.81043006 423.68096177 346.93359375 427.62890625 C348.64578091 429.93540631 350.30867578 431.97359383 352.24609375 434.06640625 C361.73278613 444.48292013 361.73278613 444.48292013 362.12109375 450.56640625 C358.78447813 459.17136232 349.53897158 466.3351904 343.10888672 472.85864258 C341.9857428 474.00355539 340.868918 475.1546993 339.75830078 476.31176758 C338.13319795 478.0038481 336.48917713 479.67531984 334.83984375 481.34375 C334.10670959 482.11863014 334.10670959 482.11863014 333.35876465 482.90916443 C329.75370363 486.49327375 326.97818572 487.45039661 321.93359375 487.62890625 C319.703125 486.765625 319.703125 486.765625 317.74609375 485.31640625 C316.99328125 484.77242188 316.24046875 484.2284375 315.46484375 483.66796875 C313.56334827 482.1362085 311.72782791 480.58278228 309.90234375 478.96484375 C309.11766724 478.27902222 309.11766724 478.27902222 308.31713867 477.5793457 C306.80318674 476.24184504 305.31504539 474.87530153 303.828125 473.5078125 C301.097372 471.35125025 301.097372 471.35125025 297.9921875 471.68359375 C294.65176094 472.71601167 291.42537393 473.88050205 288.18359375 475.19140625 C282.13472689 477.62890625 282.13472689 477.62890625 279.93359375 477.62890625 C279.88460938 478.40492188 279.835625 479.1809375 279.78515625 479.98046875 C279.36545102 486.04448576 278.84209415 492.09292058 278.12109375 498.12890625 C277.99089844 499.25296875 277.86070312 500.37703125 277.7265625 501.53515625 C276.8110184 505.10713126 275.45785259 506.97482839 272.93359375 509.62890625 C270.55328414 510.81906106 269.03696264 510.78076128 266.37963867 510.82177734 C264.96257881 510.84587173 264.96257881 510.84587173 263.51689148 510.87045288 C259.19445482 510.91487887 254.87217208 510.95596658 250.54956055 510.97900391 C248.26918332 510.99556721 245.98885809 511.0228619 243.70874023 511.06103516 C240.42274005 511.11577406 237.13795709 511.13767382 233.8515625 511.15234375 C232.32477119 511.18634781 232.32477119 511.18634781 230.76713562 511.22103882 C223.68134787 511.19987393 223.68134787 511.19987393 219.8046875 508.23974609 C217.90292323 505.58610998 217.17900526 504.07735831 216.74609375 500.87890625 C216.61074219 499.93917969 216.47539062 498.99945313 216.3359375 498.03125 C216.20316406 496.90847656 216.07039063 495.78570312 215.93359375 494.62890625 C215.74756223 493.13018767 215.56135279 491.63149117 215.375 490.1328125 C214.86671456 485.96773181 214.39320382 481.79962313 213.93359375 477.62890625 C213.29292969 477.44714844 212.65226562 477.26539063 211.9921875 477.078125 C207.90523411 475.89041127 203.96380513 474.72374778 200.12109375 472.87890625 C196.49172876 471.45562586 195.56011441 471.40783788 191.93359375 472.62890625 C189.66953158 474.34324619 187.59332288 476.04531489 185.49609375 477.94140625 C175.21629234 487.08304354 175.21629234 487.08304354 170.05859375 488.31640625 C161.32650168 486.39534599 153.4816779 475.32973449 147.27661133 469.10229492 C145.47917139 467.29943284 143.67636714 465.5020564 141.87304688 463.70507812 C140.72754328 462.55891478 139.58234936 461.41244183 138.4375 460.265625 C137.89903946 459.72918869 137.36057892 459.19275238 136.80580139 458.64006042 C132.07574808 453.87986436 132.07574808 453.87986436 131.62109375 449.87890625 C132.32094767 442.60042546 139.30809504 436.44190763 143.95117188 431.10742188 C147.07706798 427.5431706 147.07706798 427.5431706 147.94921875 423.078125 C147.6140625 422.26988281 147.27890625 421.46164062 146.93359375 420.62890625 C146.54042969 419.56414062 146.14726562 418.499375 145.7421875 417.40234375 C144.8259533 415.13133589 143.90928455 412.8605033 142.9921875 410.58984375 C141.93359375 407.62890625 141.93359375 407.62890625 141.93359375 404.62890625 C140.9178125 404.57992188 139.90203125 404.5309375 138.85546875 404.48046875 C116.88975699 403.33438505 116.88975699 403.33438505 110.68359375 399.75390625 C107.96185779 394.89366346 108.54276755 390.07441794 108.93359375 384.62890625 C108.38469482 384.46455078 107.8357959 384.30019531 107.27026367 384.13085938 C101.56642 382.33865645 96.47343408 380.01131593 91.24609375 377.12890625 C89.80500107 376.34707799 88.36360044 375.56581706 86.921875 374.78515625 C85.90988037 374.23408203 85.90988037 374.23408203 84.87744141 373.671875 C82.25785842 372.2663414 79.60157068 370.93978625 76.93359375 369.62890625 C71.19104514 375.82702239 65.65717297 382.10376662 60.34765625 388.6796875 C57.59497502 392.04259095 54.77177606 395.33820194 51.93359375 398.62890625 C48.3788783 402.75342331 44.86566589 406.9009913 41.43359375 411.12890625 C37.04646473 416.52966797 32.52135963 421.80358325 27.984375 427.078125 C21.75837008 434.31706749 15.57273135 441.58756534 9.55859375 449.00390625 C5.39202952 454.12624149 1.07158094 459.10308003 -3.2668457 464.0793457 C-6.44819118 467.73675398 -9.574011 471.42684386 -12.62890625 475.19140625 C-17.55099609 481.25353896 -22.57478604 487.21902477 -27.72509766 493.08837891 C-28.85097761 494.38148093 -29.95200372 495.69616474 -31.046875 497.015625 C-38.35563575 505.22789701 -51.48834315 511.79029598 -62.43383789 512.86035156 C-81.01786921 513.85801143 -95.13798717 511.06141609 -109.46484375 498.53125 C-120.25048214 488.37268361 -126.07768428 475.52598702 -127.3046875 460.76171875 C-127.72774993 443.61655726 -122.37011034 428.56458259 -110.53515625 416.01953125 C-107.21309915 412.80260254 -103.70128537 409.9053865 -100.078125 407.03515625 C-96.7151899 404.3482976 -93.45004381 401.56541174 -90.19140625 398.75390625 C-88.99756998 397.72636014 -87.8035593 396.69901663 -86.609375 395.671875 C-86.01946777 395.16446777 -85.42956055 394.65706055 -84.82177734 394.13427734 C-80.46367911 390.39685958 -76.07095098 386.70012974 -71.68408203 382.99658203 C-70.03731646 381.60431208 -68.39330558 380.20885152 -66.75 378.8125 C-61.74405973 374.56150566 -56.72600245 370.33326333 -51.62890625 366.19140625 C-46.21070046 361.7797757 -40.91369775 357.23566983 -35.6171875 352.6796875 C-28.35609622 346.43463304 -21.06087196 340.23259475 -13.62890625 334.19140625 C-9.35895626 330.71818162 -5.17142906 327.1609157 -1.00390625 323.56640625 C4.54032456 318.78485782 10.16935124 314.14467227 15.93359375 309.62890625 C14.46347174 304.54671026 12.20999295 300.34410563 9.55859375 295.81640625 C6.32888887 290.20199616 3.39842199 284.63022718 0.93359375 278.62890625 C0.19753906 278.61472656 -0.53851563 278.60054688 -1.296875 278.5859375 C-2.27269531 278.53824219 -3.24851562 278.49054688 -4.25390625 278.44140625 C-5.21683594 278.40660156 -6.17976563 278.37179687 -7.171875 278.3359375 C-11.22021426 277.34707191 -12.59877996 275.98761981 -15.06640625 272.62890625 C-16.07253893 269.39749651 -16.4912639 266.17185822 -16.87890625 262.81640625 C-17.05969727 261.51993164 -17.05969727 261.51993164 -17.24414062 260.19726562 C-17.93467774 254.96891316 -18.18271978 249.89974575 -18.06640625 244.62890625 C-18.88431641 244.48195312 -18.88431641 244.48195312 -19.71875 244.33203125 C-24.91341952 243.30197712 -29.31354642 241.76380485 -34.0234375 239.3359375 C-36.64161978 238.42983617 -37.51205162 238.53886114 -40.06640625 239.62890625 C-42.24050839 241.16356658 -44.30770981 242.71729204 -46.37890625 244.37890625 C-47.54399717 245.2881112 -48.70935912 246.19696897 -49.875 247.10546875 C-51.67425649 248.52122568 -53.4568707 249.94946838 -55.2265625 251.40234375 C-57.96857873 253.56347727 -60.07568651 254.63093103 -63.50390625 255.37890625 C-72.36578607 253.51324734 -79.94286167 242.93866743 -86.24121094 236.6394043 C-87.95360067 234.92922759 -89.67387669 233.22724689 -91.39453125 231.52539062 C-92.49137334 230.43147859 -93.58774485 229.33709447 -94.68359375 228.2421875 C-95.19501923 227.73794754 -95.7064447 227.23370758 -96.23336792 226.71418762 C-98.72203315 224.20938761 -100.85709525 221.9829738 -102.06640625 218.62890625 C-101.92043942 213.31571379 -99.57801663 210.0975131 -96.31640625 206.12890625 C-95.67058594 205.31486328 -95.67058594 205.31486328 -95.01171875 204.484375 C-93.25724695 202.28340589 -91.48753947 200.10727186 -89.62744141 197.99438477 C-86.69442794 194.76776415 -86.69442794 194.76776415 -85.94140625 190.56640625 C-88.16877135 180.86989485 -88.16877135 180.86989485 -93.06640625 172.62890625 C-94.7722181 172.36681976 -96.48679508 172.16128636 -98.203125 171.98046875 C-99.7819043 171.80257812 -99.7819043 171.80257812 -101.39257812 171.62109375 C-103.61332634 171.37850185 -105.834684 171.14141844 -108.05664062 170.91015625 C-118.68697471 169.69378205 -118.68697471 169.69378205 -123.06640625 166.62890625 C-124.88633158 163.70220443 -125.32407295 161.45058517 -125.35693359 158.03149414 C-125.3696933 157.12698013 -125.382453 156.22246613 -125.39559937 155.2905426 C-125.39782501 154.32067917 -125.40005066 153.35081573 -125.40234375 152.3515625 C-125.40900055 151.34806259 -125.41565735 150.34456268 -125.42251587 149.31065369 C-125.43263354 147.18994986 -125.43733316 145.06921426 -125.43701172 142.94848633 C-125.44138567 139.70666019 -125.47771748 136.46619477 -125.515625 133.22460938 C-125.52149318 131.16276507 -125.52546256 129.1009143 -125.52734375 127.0390625 C-125.54171478 126.0712233 -125.55608582 125.10338409 -125.57089233 124.10621643 C-125.54179836 119.81457012 -125.46850691 117.30563323 -123.24047852 113.5559082 C-118.57358718 109.41938116 -111.99298417 109.19911796 -106.00390625 108.50390625 C-105.32263672 108.41753906 -104.64136719 108.33117187 -103.93945312 108.2421875 C-99.95917087 107.76042423 -96.07406682 107.54137544 -92.06640625 107.62890625 C-91.89625 107.02304688 -91.72609375 106.4171875 -91.55078125 105.79296875 C-91.3084375 104.95507812 -91.06609375 104.1171875 -90.81640625 103.25390625 C-90.584375 102.44179687 -90.35234375 101.6296875 -90.11328125 100.79296875 C-88.63428145 96.32285742 -86.84767716 91.98585641 -85.06640625 87.62890625 C-85.48003418 87.13487305 -85.89366211 86.64083984 -86.31982422 86.13183594 C-88.19775565 83.88422466 -90.06962294 81.63163959 -91.94140625 79.37890625 C-92.59238281 78.60160156 -93.24335937 77.82429688 -93.9140625 77.0234375 C-94.53925781 76.26933594 -95.16445312 75.51523438 -95.80859375 74.73828125 C-96.38464355 74.04702148 -96.96069336 73.35576172 -97.55419922 72.64355469 C-100.61470436 68.56617523 -101.75403314 65.17003844 -101.52612305 60.08618164 C-100.99622014 57.25374789 -100.27119748 56.23822952 -98.33203125 54.140625 C-97.69724854 53.45242676 -97.06246582 52.76422852 -96.40844727 52.05517578 C-91.97164175 47.45880622 -87.49281168 42.90799258 -82.96704102 38.39916992 C-81.23660488 36.67415912 -79.51166135 34.94378197 -77.78710938 33.21289062 C-76.68651896 32.11295992 -75.58561897 31.01333887 -74.484375 29.9140625 C-73.7125312 29.13918236 -73.7125312 29.13918236 -72.9250946 28.34864807 C-69.80450257 25.24864445 -68.281586 23.76147131 -63.84375 23.27734375 C-59.30092679 23.70015046 -56.97624752 25.3936268 -53.62890625 28.25390625 C-53.0661499 28.70668945 -52.50339355 29.15947266 -51.92358398 29.62597656 C-49.46378382 31.60737437 -47.05449678 33.63915304 -44.66015625 35.69921875 C-43.98984375 36.25351562 -43.31953125 36.8078125 -42.62890625 37.37890625 C-42.07332031 37.86875 -41.51773438 38.35859375 -40.9453125 38.86328125 C-37.92993736 40.0919996 -36.00549688 38.82458989 -33.06640625 37.62890625 C-31.93460937 37.20351563 -30.8028125 36.778125 -29.63671875 36.33984375 C-28.49976562 35.89898437 -27.3628125 35.458125 -26.19140625 35.00390625 C-24.14973958 34.21223958 -22.10807292 33.42057292 -20.06640625 32.62890625 C-19.92392456 31.44131714 -19.92392456 31.44131714 -19.77856445 30.22973633 C-19.33410018 26.6304989 -18.8568877 23.0363395 -18.37890625 19.44140625 C-18.23001953 18.19552734 -18.08113281 16.94964844 -17.92773438 15.66601562 C-17.68120117 13.86293945 -17.68120117 13.86293945 -17.4296875 12.0234375 C-17.28829346 10.91846924 -17.14689941 9.81350098 -17.0012207 8.67504883 C-14.25679709 -0.26780139 -8.10343519 -0.10395853 0 0 Z " fill="#193752" transform="translate(127.06640625,-0.62890625)"/>
<path d="M0 0 C33.8354631 -1.4544155 66.62855255 11.24530377 91.57763672 33.91552734 C109.30001521 50.55025083 121.66064333 70.53268855 128.70263672 93.79052734 C128.89768799 94.43046631 129.09273926 95.07040527 129.29370117 95.72973633 C137.47507574 124.51792555 133.90300552 155.09985123 121.89013672 182.10302734 C121.61298828 182.7343457 121.33583984 183.36566406 121.05029297 184.01611328 C110.05879128 208.64181026 90.32625288 229.03662806 66.89013672 242.10302734 C65.81376953 242.70888672 64.73740234 243.31474609 63.62841797 243.93896484 C43.17307509 254.81997186 20.9003478 259.19897004 -2.10986328 258.10302734 C-2.92358398 258.06580566 -3.73730469 258.02858398 -4.57568359 257.99023438 C-32.91620155 256.46661063 -58.51067671 245.34156252 -80.10986328 227.10302734 C-80.89490234 226.44173828 -81.67994141 225.78044922 -82.48876953 225.09912109 C-105.69277209 205.03610027 -122.12201231 173.40483317 -124.73486328 142.72802734 C-125.74338471 128.19784828 -125.66511955 114.28206121 -122.10986328 100.10302734 C-121.94357422 99.42175781 -121.77728516 98.74048828 -121.60595703 98.03857422 C-113.20497087 64.46574432 -91.45073663 35.70415165 -61.92333984 17.77539062 C-42.42681691 6.41985891 -22.45860807 1.09668278 0 0 Z " fill="#FDFEFE" transform="translate(308.10986328125,70.89697265625)"/>
<path d="M0 0 C3.19814231 2.97195791 6.32791363 5.99772715 9.375 9.125 C10.22771484 9.91003906 10.22771484 9.91003906 11.09765625 10.7109375 C17.55912572 16.79987692 22.4373176 23.79837744 27.375 31.125 C28.06722656 32.13304688 28.75945312 33.14109375 29.47265625 34.1796875 C38.95196564 48.69075755 45.16629389 65.05950861 48.88720703 81.93408203 C49.33657421 83.95241089 49.83594142 85.95943489 50.33984375 87.96484375 C54.61694447 107.37933317 54.48185785 130.90708758 49.375 150.125 C49.16037109 150.96063477 48.94574219 151.79626953 48.72460938 152.65722656 C40.98822085 182.39863205 27.45887055 207.60738254 5.375 229.125 C4.89804687 229.65867187 4.42109375 230.19234375 3.9296875 230.7421875 C-22.99964715 259.84519041 -63.08384372 271.36196182 -101.375 273.31640625 C-145.98354431 274.10547248 -184.93278393 255.65459402 -216.625 225.125 C-230.86186929 210.95837842 -240.62060901 193.37414142 -248.625 175.125 C-249.058125 174.17753906 -249.49125 173.23007812 -249.9375 172.25390625 C-251.35111679 168.92748923 -252.54780161 165.57170134 -253.625 162.125 C-253.97208008 161.01753418 -253.97208008 161.01753418 -254.32617188 159.88769531 C-264.17008315 126.52777376 -261.58528647 85.48406202 -246.625 54.125 C-246.32335937 53.4753125 -246.02171875 52.825625 -245.7109375 52.15625 C-228.40022918 15.00155897 -197.04462158 -14.89371559 -158.62109375 -29.53125 C-104.07771174 -48.51725902 -43.44108974 -38.52924847 0 0 Z M-187.625 19.125 C-188.41003906 19.78628906 -189.19507813 20.44757813 -190.00390625 21.12890625 C-210.83438363 39.13969126 -224.91881834 65.34160985 -230.625 92.125 C-230.83125 93.02089844 -231.0375 93.91679687 -231.25 94.83984375 C-233.20485857 104.51910874 -232.89416229 114.30163595 -232.625 124.125 C-232.59535156 125.23230469 -232.56570312 126.33960938 -232.53515625 127.48046875 C-230.70697347 159.80809099 -213.55926812 192.00507664 -189.9375 213.625 C-166.67657497 233.10032351 -140.07805832 244.73930528 -109.625 246.125 C-108.58061768 246.17599854 -108.58061768 246.17599854 -107.51513672 246.22802734 C-73.67967362 247.68244284 -40.88658417 234.98272358 -15.9375 212.3125 C6.95814263 190.82200512 23.66689067 160.51951827 25.57983398 128.7199707 C25.67807475 125.12305869 25.70418812 121.53569754 25.6875 117.9375 C25.68186035 116.66028076 25.6762207 115.38306152 25.67041016 114.06713867 C25.2125501 78.33818823 9.43418715 46.73188673 -15.79052734 21.82568359 C-18.83413415 19.00404865 -22.09758708 16.52065974 -25.4375 14.0625 C-26.14398682 13.54083252 -26.85047363 13.01916504 -27.57836914 12.48168945 C-43.14470325 1.09607885 -59.94118834 -5.40933835 -78.625 -9.875 C-79.65882813 -10.1225 -80.69265625 -10.37 -81.7578125 -10.625 C-119.26961725 -18.14825889 -158.97012179 -5.07142066 -187.625 19.125 Z " fill="#2E9FD9" transform="translate(415.625,82.875)"/>
<path d="M0 0 C3.55873125 1.18624375 4.07309042 2.15381261 6.25 5.125 C10.03476486 9.98912372 14.15113873 14.38496795 18.5 18.75 C19.11649414 19.37535645 19.73298828 20.00071289 20.36816406 20.64501953 C24.62104824 24.87209465 29.11592559 28.52466978 34 32 C32.38543439 35.36271993 30.51399141 37.99595907 28.125 40.875 C27.32320312 41.84179688 26.52140625 42.80859375 25.6953125 43.8046875 C22.31048391 47.83280942 18.87810544 51.82017194 15.44384766 55.80615234 C12.41171709 59.33128095 9.4308007 62.88959334 6.5 66.5 C2.11054182 71.90362902 -2.41682809 77.18038455 -6.95703125 82.45703125 C-11.21351925 87.40558716 -15.42167006 92.3947854 -19.63232422 97.38232422 C-21.02459417 99.02908979 -22.42005473 100.67310067 -23.81640625 102.31640625 C-28.06740059 107.32234652 -32.29564292 112.3404038 -36.4375 117.4375 C-40.8514623 122.85856956 -45.39782805 128.15841974 -49.95703125 133.45703125 C-54.21351925 138.40558716 -58.42167006 143.3947854 -62.63232422 148.38232422 C-64.02459417 150.02908979 -65.42005473 151.67310067 -66.81640625 153.31640625 C-71.13498801 158.40228673 -75.42475401 163.50282136 -79.625 168.6875 C-93.18556371 185.24540757 -93.18556371 185.24540757 -101 189 C-101.639375 189.31710937 -102.27875 189.63421875 -102.9375 189.9609375 C-111.76930136 193.60740094 -124.20048059 193.5634506 -133.046875 189.984375 C-136.5395537 188.22406494 -139.79856702 186.24452114 -143 184 C-144.3303125 183.071875 -144.3303125 183.071875 -145.6875 182.125 C-152.86361247 175.53073449 -157.41482775 165.90695119 -158.23828125 156.1875 C-158.54773119 142.89743929 -154.90377623 133.4970695 -146 123.828125 C-141.30975923 118.97037563 -136.28420399 114.66832012 -131.01953125 110.44921875 C-127.62367005 107.69474918 -124.30934758 104.85719443 -121 102 C-116.01103422 97.69977163 -110.95777115 93.49513187 -105.84375 89.34375 C-102.52313514 86.60697951 -99.25953218 83.8089705 -96 81 C-91.87531796 77.44546839 -87.72792288 73.93207857 -83.5 70.5 C-78.09923828 66.11287098 -72.825323 61.58776588 -67.55078125 57.05078125 C-60.28968997 50.80572679 -52.99446571 44.6036885 -45.5625 38.5625 C-40.14429421 34.15086945 -34.8472915 29.60676358 -29.55078125 25.05078125 C-21.17402769 17.84617795 -12.73180355 10.73014255 -4.14453125 3.77734375 C-1.96529769 2.02744291 -1.96529769 2.02744291 0 0 Z " fill="#F9BC5D" transform="translate(174,304)"/>
<path d="M0 0 C0.87873779 -0.00012085 1.75747559 -0.0002417 2.6628418 -0.00036621 C16.99291033 0.02762983 30.62828566 1.14014012 44.625 4.375 C46.06878191 4.67947101 47.51278032 4.98291787 48.95703125 5.28515625 C65.34840879 8.88904639 80.93819286 15.34281603 95.625 23.375 C96.31303711 23.74995605 97.00107422 24.12491211 97.70996094 24.51123047 C113.36677033 33.14513018 127.34539376 43.54080682 140.18164062 55.97851562 C141.53128102 57.28432466 142.89787002 58.57255227 144.265625 59.859375 C155.14968791 70.33271855 163.85928813 82.47361931 171.625 95.375 C171.99866699 95.99068848 172.37233398 96.60637695 172.75732422 97.24072266 C186.38568706 119.90041848 194.15167597 144.41265617 198.625 170.375 C198.81191406 171.45394531 198.99882812 172.53289062 199.19140625 173.64453125 C204.09319713 215.81759696 195.71827398 255.3277962 177.625 293.375 C177.13644531 292.71371094 176.64789063 292.05242187 176.14453125 291.37109375 C174.08104244 288.91730163 172.02320471 286.78959135 169.69921875 284.59765625 C168.98572266 283.91896484 168.27222656 283.24027344 167.53710938 282.54101562 C166.0456281 281.13072121 164.54280588 279.73233113 163.02929688 278.34570312 C157.67803971 273.19932545 157.67803971 273.19932545 157.4375 269.4609375 C158.0253125 267.93339844 158.0253125 267.93339844 158.625 266.375 C159.12137521 264.89722993 159.61744013 263.41935561 160.11328125 261.94140625 C160.71858883 260.27243197 161.326794 258.60450648 161.9375 256.9375 C168.26935963 239.19535437 172.02849734 222.27393551 171.875 203.3125 C171.86605713 202.04954102 171.85711426 200.78658203 171.84790039 199.48535156 C171.23787778 149.65946299 151.9109709 107.27467337 116.60546875 72.37890625 C90.05838245 48.26096511 56.85966554 34.45182278 21.625 29.375 C20.77679688 29.24351563 19.92859375 29.11203125 19.0546875 28.9765625 C-7.87720663 25.50450646 -37.89900196 29.4011218 -62.74267578 40.22729492 C-68.73933097 42.79578002 -68.73933097 42.79578002 -72.375 41.375 C-74.14257813 39.94799805 -74.14257813 39.94799805 -75.90625 38.13671875 C-76.87498047 37.15348633 -76.87498047 37.15348633 -77.86328125 36.15039062 C-78.52714844 35.46138672 -79.19101563 34.77238281 -79.875 34.0625 C-80.53886719 33.38509766 -81.20273438 32.70769531 -81.88671875 32.00976562 C-83.16188362 30.70787574 -84.43416999 29.40315823 -85.703125 28.09521484 C-87.57489443 26.16932592 -89.4687087 24.26670234 -91.375 22.375 C-73.37866578 12.42408578 -53.63813174 5.86233693 -33.375 2.375 C-31.91247803 2.11227295 -31.91247803 2.11227295 -30.42041016 1.84423828 C-20.27016463 0.18967594 -10.26459207 -0.02174088 0 0 Z " fill="#DFE3E7" transform="translate(311.375,0.625)"/>
<path d="M0 0 C3.82792868 1.5595265 6.36359864 3.83631836 9 7 C8.67377496 10.20619939 7.36360582 12.11959227 5.34765625 14.56640625 C4.81849609 15.21673828 4.28933594 15.86707031 3.74414062 16.53710938 C3.18919922 17.20548828 2.63425781 17.87386719 2.0625 18.5625 C0.96908264 19.8963413 -0.12340177 21.23094807 -1.21484375 22.56640625 C-1.94368774 23.44727905 -1.94368774 23.44727905 -2.68725586 24.34594727 C-5.97973791 28.4944624 -6.45573826 30.72881046 -6 36 C-5.02652855 38.46874603 -4.03826786 40.6706015 -2.8125 43 C0.48548765 49.53223408 2.6348681 55.97406761 4.46875 63.05078125 C5.74327531 66.25663725 5.74327531 66.25663725 8.97265625 67.31640625 C10.30828413 67.58133427 11.65243221 67.80468043 13 68 C13.83708496 68.13865479 14.67416992 68.27730957 15.53662109 68.42016602 C18.33315424 68.86034721 21.13159413 69.24889434 23.9375 69.625 C27.258125 70.07875 30.57875 70.5325 34 71 C34 80.57 34 90.14 34 100 C21.1875 101.8125 21.1875 101.8125 17.15698242 102.36254883 C16.10873291 102.51747803 15.0604834 102.67240723 13.98046875 102.83203125 C12.37014771 103.05983276 12.37014771 103.05983276 10.72729492 103.29223633 C7.81516745 104.04796612 6.75638988 104.60238842 5 107 C4.13408007 109.48268738 3.38205357 111.90849919 2.6875 114.4375 C0.83929858 120.83133653 -1.5244927 126.45938406 -4.86328125 132.25390625 C-6.34116641 135.8241924 -6.49550719 138.16191887 -6 142 C-4.50901169 144.45795938 -3.14622353 146.40624922 -1.3125 148.5625 C-0.65991211 149.36977539 -0.65991211 149.36977539 0.00585938 150.19335938 C1.78113031 152.37891515 3.56661899 154.53322711 5.48291016 156.59716797 C6.89453125 158.15234375 6.89453125 158.15234375 9 161 C8.76530139 164.85231145 6.62997764 166.71890301 3.96484375 169.328125 C3.15595703 170.12734375 2.34707031 170.9265625 1.51367188 171.75 C0.66353516 172.575 -0.18660156 173.4 -1.0625 174.25 C-1.91650391 175.09046875 -2.77050781 175.9309375 -3.65039062 176.796875 C-5.76035412 178.87147597 -7.87699708 180.93875832 -10 183 C-13.85517277 180.14904305 -17.69105282 177.29251633 -21.37890625 174.2265625 C-21.90806641 173.79472656 -22.43722656 173.36289062 -22.98242188 172.91796875 C-24.04970278 172.04461899 -25.10686766 171.15878083 -26.15429688 170.26171875 C-28.93748373 168.0256541 -30.86970736 167.01874072 -34.421875 166.5078125 C-38.65245266 167.08974785 -41.87372668 168.40296657 -45.6875 170.25 C-51.54474582 172.97674299 -57.29197505 175.18804911 -63.546875 176.8828125 C-67.00520473 178.45778432 -68.10891963 179.65008621 -70 183 C-70.88274063 187.05370696 -71.29279008 191.12370739 -71.6875 195.25 C-71.91721318 197.44306285 -72.15010759 199.63579565 -72.38671875 201.828125 C-72.48170654 202.7965332 -72.57669434 203.76494141 -72.67456055 204.76269531 C-73 207 -73 207 -74 208 C-76.07262076 208.08767112 -78.14820294 208.10695873 -80.22265625 208.09765625 C-81.48271484 208.09443359 -82.74277344 208.09121094 -84.04101562 208.08789062 C-85.38151109 208.07953403 -86.72200588 208.07106907 -88.0625 208.0625 C-89.40689942 208.0574866 -90.7513006 208.05292342 -92.09570312 208.04882812 C-95.39717941 208.03699488 -98.69856803 208.02050971 -102 208 C-102.08040527 207.29915283 -102.16081055 206.59830566 -102.24365234 205.8762207 C-102.6135886 202.68743349 -102.99418373 199.50000541 -103.375 196.3125 C-103.56449219 194.65831055 -103.56449219 194.65831055 -103.7578125 192.97070312 C-103.88671875 191.90400391 -104.015625 190.83730469 -104.1484375 189.73828125 C-104.26364746 188.75899658 -104.37885742 187.77971191 -104.49755859 186.77075195 C-105.01803633 183.90053727 -105.64689332 181.58737653 -107 179 C-109.71183832 177.78011156 -112.18146957 176.85916411 -115 176 C-116.34806285 175.5200935 -117.69322063 175.03193839 -119.03515625 174.53515625 C-120.03192383 174.17067383 -120.03192383 174.17067383 -121.04882812 173.79882812 C-122.0455957 173.4343457 -122.0455957 173.4343457 -123.0625 173.0625 C-123.73087891 172.82337891 -124.39925781 172.58425781 -125.08789062 172.33789062 C-128.49384164 171.08341498 -131.53725417 169.73207622 -134.62109375 167.80859375 C-138.35904287 165.80781867 -139.86285768 165.13040958 -144 166 C-146.92498744 167.8382392 -149.47121343 170.03574868 -152.0625 172.3125 C-153.44683089 173.49888571 -154.83349254 174.68255806 -156.22265625 175.86328125 C-156.82859619 176.39219971 -157.43453613 176.92111816 -158.05883789 177.46606445 C-160.25995482 179.20542022 -162.57125197 180.60110609 -165 182 C-168.2075998 178.93700693 -171.38730537 175.84654508 -174.5625 172.75 C-175.47708984 171.87730469 -176.39167969 171.00460937 -177.33398438 170.10546875 C-178.19443359 169.26113281 -179.05488281 168.41679687 -179.94140625 167.546875 C-180.74263916 166.77182617 -181.54387207 165.99677734 -182.36938477 165.19824219 C-184 163 -184 163 -183.93530273 160.95458984 C-182.87708489 158.74313276 -181.66851753 157.06055404 -180.09375 155.1796875 C-179.51496094 154.47972656 -178.93617188 153.77976562 -178.33984375 153.05859375 C-177.73269531 152.33800781 -177.12554687 151.61742187 -176.5 150.875 C-175.30055165 149.4361713 -174.10256269 147.99612439 -172.90625 146.5546875 C-172.37322266 145.92030762 -171.84019531 145.28592773 -171.29101562 144.63232422 C-169.15088877 141.9264074 -168.54316011 139.69153127 -168.5859375 136.2265625 C-169.32207681 132.26807751 -171.45550815 128.93484729 -173.3359375 125.41015625 C-176.21935985 119.50117101 -178.04991315 113.26980116 -180 107 C-180.33 106.01 -180.66 105.02 -181 104 C-190.57 102.68 -200.14 101.36 -210 100 C-210 91.75 -210 83.5 -210 75 C-206.7 75.99 -203.4 76.98 -200 78 C-196.51709897 78.93207316 -193.01400052 79.75603403 -189.5 80.5625 C-188.08726807 80.8867395 -188.08726807 80.8867395 -186.64599609 81.2175293 C-177.81990208 83.16841219 -168.99970198 84.25558021 -160 85 C-159.91363281 85.90878906 -159.82726562 86.81757813 -159.73828125 87.75390625 C-157.41429855 108.54182489 -149.59625626 127.28282235 -133.4375 141.1875 C-116.75366333 153.85678847 -97.69559989 158.60842198 -77 157 C-72.13102039 156.10945104 -67.63369665 154.72350912 -63 153 C-61.96359375 152.63777344 -60.9271875 152.27554688 -59.859375 151.90234375 C-39.97360756 144.38144453 -28.10554702 129.06620729 -19.26171875 110.43359375 C-13.56355528 94.9268269 -13.34112734 74.46781947 -19.5 59.140625 C-23.43459907 50.62446731 -23.43459907 50.62446731 -28.7421875 42.94921875 C-30 41 -30 41 -29.73608398 39.05664062 C-28.50533997 35.61790511 -25.71686286 33.3566629 -23.1875 30.8125 C-15.83619359 23.18148535 -9.87649276 14.7905513 -4 6 C-3.39309326 5.09314453 -3.39309326 5.09314453 -2.77392578 4.16796875 C-1.84716321 2.78005953 -0.92322346 1.39026591 0 0 Z " fill="#FDFCFC" transform="translate(461,286)"/>
<path d="M0 0 C9.57 0 19.14 0 29 0 C30.375 11.1875 30.375 11.1875 30.79443359 14.68823242 C30.91125488 15.60967041 31.02807617 16.5311084 31.1484375 17.48046875 C31.26364746 18.41785889 31.37885742 19.35524902 31.49755859 20.32104492 C32.02442399 23.13022567 32.72661189 25.4403419 34 28 C36.87700274 30.17323557 36.87700274 30.17323557 40.25 30.75 C44.54819645 31.75051128 48.59666316 33.30633096 52.6875 34.9375 C53.32913086 35.19047852 53.97076172 35.44345703 54.63183594 35.70410156 C57.47386443 36.85420037 59.99693933 37.99786939 62.51953125 39.75390625 C66.18635719 41.59598101 68.08299328 41.15522714 72 40 C74.93188977 38.10114892 77.5108292 35.87275491 80.125 33.5625 C81.49772883 32.37066348 82.87520948 31.18427384 84.2578125 30.00390625 C84.8573877 29.47611572 85.45696289 28.9483252 86.07470703 28.40454102 C88 27 88 27 93 25 C95.64 27.64 98.28 30.28 101 33 C99.78338846 36.64983463 99.03363722 36.78827666 95.75 38.5625 C83.21806922 45.79521433 72.03256247 55.63301878 62 66 C58.98309908 64.56549319 56.14274681 62.89974452 53.27978516 61.18188477 C36.29823256 51.0977776 16.71955732 48.19868468 -2.75 52 C-21.53220233 57.14878905 -37.47796542 69.0284669 -47.25 85.875 C-50.51386118 91.70567051 -53.08727935 97.59741928 -55 104 C-55.22429687 104.67546875 -55.44859375 105.3509375 -55.6796875 106.046875 C-58.99091927 117.74958454 -57.86322895 131.6430378 -54 143 C-53.64808594 144.06734375 -53.29617187 145.1346875 -52.93359375 146.234375 C-46.64714363 163.91112585 -34.86371391 178.40531969 -18.06103516 186.99072266 C-7.36147837 191.95559596 3.31139908 194.01756211 15 195 C15.04535889 195.66209473 15.09071777 196.32418945 15.13745117 197.00634766 C15.6810869 203.94516074 16.78699353 210.58910662 18.3125 217.375 C18.53252686 218.3743457 18.75255371 219.37369141 18.97924805 220.40332031 C20.45009507 226.94442579 22.15176304 233.31825593 24.30078125 239.671875 C25 242 25 242 25 245 C17.08 245 9.16 245 1 245 C0.76216797 242.12861328 0.76216797 242.12861328 0.51953125 239.19921875 C0.28507239 236.69519814 0.0493286 234.1912976 -0.1875 231.6875 C-0.28869141 230.42486328 -0.38988281 229.16222656 -0.49414062 227.86132812 C-0.61337891 226.65283203 -0.73261719 225.44433594 -0.85546875 224.19921875 C-1.00471802 222.52605591 -1.00471802 222.52605591 -1.15698242 220.8190918 C-1.75425506 217.81664772 -1.75425506 217.81664772 -4.39404297 216.17016602 C-7.21210064 214.90475938 -9.95325373 214.04780607 -12.9375 213.25 C-19.41269835 211.36630593 -24.93558757 208.62996561 -30.80859375 205.390625 C-34.39044845 203.82986579 -36.15381024 203.29355698 -40 204 C-42.75729678 205.64845324 -45.13422604 207.6554006 -47.5625 209.75 C-48.20896484 210.28882813 -48.85542969 210.82765625 -49.52148438 211.3828125 C-51.3555654 212.91276819 -53.17905428 214.45445222 -55 216 C-59.75163399 220 -59.75163399 220 -62 220 C-63.375 218.6015625 -63.375 218.6015625 -65 216.625 C-72.10770775 207.73197785 -72.10770775 207.73197785 -81 201 C-79.68489744 198.17787986 -78.21518982 195.84484732 -76.25 193.43359375 C-75.46109375 192.4580957 -75.46109375 192.4580957 -74.65625 191.46289062 C-74.1096875 190.79451172 -73.563125 190.12613281 -73 189.4375 C-71.91559607 188.10373431 -70.83222225 186.76913028 -69.75 185.43359375 C-69.03070313 184.55272095 -69.03070313 184.55272095 -68.296875 183.65405273 C-65.2807743 179.80727521 -64.51928678 177.86504946 -65 173 C-65.9786347 170.40534892 -66.99650538 167.99028921 -68.1875 165.5 C-71.19421686 159.03148338 -73.50796675 152.66361649 -75.46875 145.79296875 C-77.15698185 142.7136683 -78.51720272 141.72255874 -81.81103516 140.55737305 C-86.29724437 139.41505589 -90.84730771 138.85964138 -95.4375 138.3125 C-98.923125 137.879375 -102.40875 137.44625 -106 137 C-106 127.76 -106 118.52 -106 109 C-99.05501419 107.45666982 -92.47836104 106.37199222 -85.453125 105.5625 C-80.97934943 104.92011674 -80.97934943 104.92011674 -77 103 C-75.96292052 100.34362098 -75.254364 98.00204256 -74.625 95.25 C-72.74090185 87.86577851 -70.06786052 81.73232801 -66.2578125 75.1484375 C-64.63294525 71.0812232 -64.72530595 69.19605692 -66 65 C-67.90153835 62.04913713 -70.12429735 59.44732441 -72.4375 56.8125 C-73.626908 55.42592426 -74.81322365 54.03668856 -75.99609375 52.64453125 C-76.52388428 52.03971924 -77.0516748 51.43490723 -77.59545898 50.81176758 C-79.03144069 48.95944354 -80.02560986 47.12596874 -81 45 C-78.10369567 41.95905847 -75.17990886 38.94604905 -72.25 35.9375 C-71.425 35.07060547 -70.6 34.20371094 -69.75 33.31054688 C-68.95078125 32.49521484 -68.1515625 31.67988281 -67.328125 30.83984375 C-66.5949707 30.08050537 -65.86181641 29.32116699 -65.10644531 28.53881836 C-63 27 -63 27 -61.00048828 27.06030273 C-58.60632174 28.18492404 -56.73361802 29.54482727 -54.6640625 31.1953125 C-53.84679687 31.82824219 -53.02953125 32.46117187 -52.1875 33.11328125 C-50.48018377 34.45362859 -48.77961151 35.80261139 -47.0859375 37.16015625 C-42.50526422 40.84172765 -42.50526422 40.84172765 -36.9765625 42.19921875 C-32.81195061 40.52135018 -28.77158851 38.68340243 -24.75 36.6875 C-18.82076023 33.79643472 -12.95484906 31.02295275 -6.71484375 28.8515625 C-4.63879112 27.99824314 -4.63879112 27.99824314 -3 25 C-2.44900518 22.29389974 -2.44900518 22.29389974 -2.1484375 19.23828125 C-2.03161621 18.23063721 -1.91479492 17.22299316 -1.79443359 16.18481445 C-1.58681396 14.2680188 -1.58681396 14.2680188 -1.375 12.3125 C-0.92125 8.249375 -0.4675 4.18625 0 0 Z " fill="#FDFCFD" transform="translate(126,16)"/>
<path d="M0 0 C10.91930798 13.93737758 16.40018433 28.55506102 16.5 46.1875 C16.50644531 47.26805664 16.51289063 48.34861328 16.51953125 49.46191406 C16.35144453 60.0740046 14.19324056 69.77612124 9.25 79.1875 C8.72394165 80.20855835 8.72394165 80.20855835 8.18725586 81.25024414 C5.32916015 86.65746967 2.12214008 91.46299786 -2 96 C-2.98033203 97.11761719 -2.98033203 97.11761719 -3.98046875 98.2578125 C-15.37759812 110.50609361 -33.20845284 119.5738445 -50.15234375 120.203125 C-72.65323894 120.58022181 -91.73082537 114.33654884 -108.390625 98.765625 C-121.39621553 85.22919404 -129.36850734 66.79387417 -129 48 C-128.11030518 47.96241577 -128.11030518 47.96241577 -127.20263672 47.92407227 C-115.78791071 47.43695264 -104.38992247 46.9135262 -93 46 C-92.91363281 46.75023437 -92.82726562 47.50046875 -92.73828125 48.2734375 C-91.32170171 58.59237471 -87.93281749 67.90038872 -80 75 C-73.74862778 79.69123773 -67.76669693 82.22925908 -60 83 C-58.68708984 83.14115234 -58.68708984 83.14115234 -57.34765625 83.28515625 C-47.23236723 83.85114803 -39.09737513 80.15137952 -31.5 73.625 C-24.26845137 66.62523177 -20.82969523 58.94216049 -20.62036133 48.79589844 C-20.62189209 48.07950195 -20.62342285 47.36310547 -20.625 46.625 C-20.62588623 45.87766602 -20.62677246 45.13033203 -20.62768555 44.36035156 C-20.75310396 38.51088787 -21.85149278 33.99924264 -25 29 C-25.5775 28.030625 -26.155 27.06125 -26.75 26.0625 C-27.1625 25.381875 -27.575 24.70125 -28 24 C-28 23.34 -28 22.68 -28 22 C-26.44101062 20.91142134 -24.82399356 19.90566332 -23.1875 18.9375 C-16.17901097 14.60926 -9.54382987 9.67016962 -3.80859375 3.73046875 C-2 2 -2 2 0 2 C0 1.34 0 0.68 0 0 Z " fill="#EF6151" transform="translate(430,324)"/>
<path d="M0 0 C1.18183347 1.0032355 2.35565978 2.01670018 3.5 3.0625 C0.13794213 7.66390469 -3.35378143 12.11960205 -7 16.5 C-10.84408988 21.15713766 -14.28388068 25.95454578 -17.5 31.0625 C-20.94262135 30.33338587 -23.52777282 28.96462263 -26.5234375 27.09765625 C-34.57878665 22.87894573 -44.7152322 22.72988333 -53.484375 24.75 C-64.09625316 28.7047372 -71.55366735 35.92908399 -76.5 46.0625 C-80.42205183 56.45593735 -78.56647259 65.9847201 -74.5 76.0625 C-69.77275344 85.43307749 -62.84329875 90.41522418 -53.28515625 94.30078125 C-49.45382555 95.34862064 -45.44774101 95.62386211 -41.5 96.0625 C-42.16 107.9425 -42.82 119.8225 -43.5 132.0625 C-64.32639328 132.0625 -80.77160206 123.88939252 -95.81640625 109.91015625 C-104.18359884 101.11723566 -110.12541307 89.66042244 -113.5 78.0625 C-113.72429687 77.31355469 -113.94859375 76.56460938 -114.1796875 75.79296875 C-119.12695041 55.90226102 -113.70756269 36.29142154 -103.5 19.0625 C-101.3682398 15.84208449 -99.08457025 12.92826192 -96.5 10.0625 C-96.005 9.47597656 -95.51 8.88945313 -95 8.28515625 C-71.74821433 -17.34993745 -27.25859539 -21.12004557 0 0 Z " fill="#EF6151" transform="translate(183.5,78.9375)"/>
<path d="M0 0 C3.30180503 2.45518836 5.59744189 5.13238379 7.4375 8.8125 C7.52408569 11.36612604 7.55312516 13.8920442 7.53515625 16.4453125 C7.5337413 17.19714813 7.53232635 17.94898376 7.53086853 18.72360229 C7.52526465 21.1282751 7.51271157 23.53285527 7.5 25.9375 C7.4949855 27.56640491 7.4904225 29.19531127 7.48632812 30.82421875 C7.47529397 34.82034827 7.45802679 38.81640842 7.4375 42.8125 C5.1275 42.8125 2.8175 42.8125 0.4375 42.8125 C-0.0575 40.3375 -0.0575 40.3375 -0.5625 37.8125 C-1.305 38.451875 -2.0475 39.09125 -2.8125 39.75 C-8.02702372 43.66089279 -14.23768735 43.58126176 -20.5625 42.8125 C-25.01806044 41.12346401 -27.8112203 38.86898707 -30.5625 35 C-31.86757287 30.84008023 -32.04744061 28.17696553 -31.5625 23.8125 C-29.03963733 19.44600691 -26.20151972 17.63497203 -21.5625 15.8125 C-18.09362958 15.46130826 -14.66941405 15.52814219 -11.1875 15.625 C-10.26066406 15.63853516 -9.33382813 15.65207031 -8.37890625 15.66601562 C-6.10616002 15.70116119 -3.83464153 15.75035868 -1.5625 15.8125 C-2.66036425 10.40462615 -2.66036425 10.40462615 -6.5625 6.8125 C-12.57126439 6.09628505 -17.59005173 6.0831638 -22.5625 9.8125 C-23.5525 9.8125 -24.5425 9.8125 -25.5625 9.8125 C-28.5625 6.47916667 -28.5625 6.47916667 -28.5625 3.8125 C-27.31514433 3.1615741 -26.06448168 2.51698331 -24.8125 1.875 C-24.11640625 1.51535156 -23.4203125 1.15570313 -22.703125 0.78515625 C-15.81947156 -2.34263519 -7.08839069 -2.3627969 0 0 Z " fill="#1D3A54" transform="translate(297.5625,188.1875)"/>
<path d="M0 0 C2.97 0 5.94 0 9 0 C9 11.88 9 23.76 9 36 C9.66 36 10.32 36 11 36 C11.27150879 35.4112207 11.54301758 34.82244141 11.82275391 34.21582031 C15.14078622 27.97059814 21.19723161 21.97827833 27 18 C31.28374715 16.91043823 34.71060378 17.01013933 39 18 C34.10995345 23.76774721 29.07515796 29.39476999 24 35 C25.38071919 38.82949315 27.156206 41.92697384 29.4765625 45.265625 C30.146875 46.23757812 30.8171875 47.20953125 31.5078125 48.2109375 C32.20648438 49.21382812 32.90515625 50.21671875 33.625 51.25 C35.01500224 53.25383534 36.40313315 55.25897054 37.7890625 57.265625 C38.40475098 58.15024414 39.02043945 59.03486328 39.65478516 59.94628906 C41 62 41 62 41 63 C37.10663374 63.78595057 33.87003603 63.98745765 30 63 C26.26328445 59.4546223 23.68516209 55.37069948 21 51 C19.68021158 48.99066872 18.33974508 46.99613026 17 45 C14.09457658 46.30243119 11.94320559 47.45224156 10 50 C9.41907008 53.19245998 9.41907008 53.19245998 9.3125 56.6875 C9.24675781 57.86699219 9.18101562 59.04648438 9.11328125 60.26171875 C9.07589844 61.16535156 9.03851563 62.06898438 9 63 C6.03 63 3.06 63 0 63 C0 42.21 0 21.42 0 0 Z " fill="#1A3853" transform="translate(363,168)"/>
<path d="M0 0 C2.55969158 1.4104423 4.82848584 2.81092811 7.0625 4.6875 C6.45389227 8.11424266 5.58504959 11.21293282 4.3203125 14.453125 C3.97613281 15.34386719 3.63195312 16.23460937 3.27734375 17.15234375 C2.91769531 18.07144531 2.55804688 18.99054688 2.1875 19.9375 C-0.35743951 26.47230805 -2.79151277 33.00972884 -4.9375 39.6875 C-12.39721238 40.24945506 -17.1270557 39.63090695 -22.9375 34.6875 C-27.56945907 30.18518864 -29.97014769 25.82447582 -30.3125 19.375 C-30.15410815 13.02876658 -27.58677139 8.64058454 -23.5625 3.875 C-16.70040738 -1.84341051 -8.46442655 -3.44779443 0 0 Z " fill="#FBFCFC" transform="translate(149.9375,119.3125)"/>
<path d="M0 0 C3.12101034 1.35116911 4.26483494 3.44260768 5.93359375 6.3203125 C8.30900956 12.35743649 7.96173731 19.26170333 5.421875 25.20703125 C2.68231266 29.89363969 -1.83919415 33.77613979 -7.03125 35.46875 C-12.85733625 36.50276913 -18.16990403 36.79785657 -23.390625 33.70703125 C-28.33789215 30.16898565 -32.50138132 25.85232532 -34.078125 19.83203125 C-34.22401598 17.14059421 -34.16964299 14.53181209 -34.078125 11.83203125 C-33.54227783 11.65679932 -33.00643066 11.48156738 -32.4543457 11.30102539 C-26.6834909 9.3977453 -20.96671946 7.37183809 -15.265625 5.26953125 C-14.43353516 4.96595703 -13.60144531 4.66238281 -12.74414062 4.34960938 C-11.94041016 4.05376953 -11.13667969 3.75792969 -10.30859375 3.453125 C-9.59082764 3.18943115 -8.87306152 2.9257373 -8.13354492 2.65405273 C-6.03290636 1.85352287 -6.03290636 1.85352287 -3.94360352 0.72021484 C-2.078125 -0.16796875 -2.078125 -0.16796875 0 0 Z " fill="#FBFBFC" transform="translate(387.078125,355.16796875)"/>
<path d="M0 0 C15.51 0 31.02 0 47 0 C47 2.97 47 5.94 47 9 C40.73 9 34.46 9 28 9 C28 25.5 28 42 28 59 C24.7 59 21.4 59 18 59 C18 42.5 18 26 18 9 C12.06 9 6.12 9 0 9 C0 6.03 0 3.06 0 0 Z " fill="#1B3853" transform="translate(220,172)"/>
<path d="M0 0 C1.5778125 0.99 1.5778125 0.99 3.1875 2 C2.3125 6.75 2.3125 6.75 1.1875 9 C0.61902344 8.855625 0.05054688 8.71125 -0.53515625 8.5625 C-5.37699272 7.39851928 -9.79649074 6.59871926 -14.8125 7 C-18.03654978 8.66954819 -18.03654978 8.66954819 -18.5 11.625 C-18.6546875 12.800625 -18.6546875 12.800625 -18.8125 14 C-18.26722656 14.17015625 -17.72195313 14.3403125 -17.16015625 14.515625 C-0.14512712 19.98370274 -0.14512712 19.98370274 5.1875 26 C5.98132102 31.55674711 5.41630598 35.26441789 2.1875 40 C-4.30668467 45.00593401 -9.8094017 45.78257154 -17.8125 45 C-22.56454345 43.62079619 -26.69945209 41.74203194 -30.8125 39 C-28.9375 34.25 -28.9375 34.25 -27.8125 32 C-24.79827872 32.44326784 -22.73571123 33.04362999 -20.0625 34.5625 C-15.96702385 36.37396061 -12.24328294 36.68234057 -7.8125 36 C-7.1525 35.34 -6.4925 34.68 -5.8125 34 C-5.69256698 31.46575259 -5.69256698 31.46575259 -6.8125 29 C-9.32056478 27.43860649 -9.32056478 27.43860649 -12.4375 26.4375 C-26.39081625 21.12827146 -26.39081625 21.12827146 -28.8125 16 C-29.3430638 11.30072065 -29.2999806 9.01395965 -27.25 4.75 C-20.16861762 -3.23925192 -9.66401706 -4.81481277 0 0 Z " fill="#1E3B56" transform="translate(346.8125,187)"/>
<path d="M0 0 C1.66757068 0.66440218 3.33402816 1.33159888 5 2 C5.87575684 2.3192041 6.75151367 2.6384082 7.65380859 2.96728516 C10.68477986 4.35198424 12.70820661 5.56076256 15 8 C16.25940188 13.15820478 15.94736112 18.13085358 15.625 23.375 C15.57479189 24.79281219 15.52917258 26.21079477 15.48828125 27.62890625 C15.37853182 31.08949952 15.20630107 34.54366362 15 38 C8.7231496 36.11224622 3.06230161 33.69637731 -2.6875 30.5625 C-3.40744141 30.18029297 -4.12738281 29.79808594 -4.86914062 29.40429688 C-9.07861744 27.14414934 -13.07001548 24.71694992 -17 22 C-15.66347623 19.08376603 -14.15606408 16.83123238 -12.03125 14.43359375 C-11.46019531 13.78326172 -10.88914063 13.13292969 -10.30078125 12.46289062 C-9.70652344 11.79451172 -9.11226562 11.12613281 -8.5 10.4375 C-7.32138959 9.10421295 -6.14424677 7.76962676 -4.96875 6.43359375 C-4.18661133 5.55272095 -4.18661133 5.55272095 -3.38867188 4.65405273 C-1.8132734 2.83926466 -1.8132734 2.83926466 0 0 Z " fill="#DEE2E6" transform="translate(221,346)"/>
<path d="M0 0 C4.28612693 -0.29847148 8.56666477 -0.51508831 12.86010742 -0.65917969 C14.31690789 -0.71925393 15.77299251 -0.80096123 17.22729492 -0.90527344 C21.99253426 -1.23830147 26.34719632 -1.29869894 31 0 C34.57193172 3.51154796 36.74000237 7.14403178 38 12 C37.0682418 15.1306937 35.34689781 16.83944482 32.8828125 18.91015625 C32.27566406 19.42513672 31.66851562 19.94011719 31.04296875 20.47070312 C30.41003906 20.99599609 29.77710938 21.52128906 29.125 22.0625 C28.49980469 22.59166016 27.87460938 23.12082031 27.23046875 23.66601562 C25.49846378 25.12522066 23.75062202 26.56324943 22 28 C21.25492188 28.63808594 20.50984375 29.27617187 19.7421875 29.93359375 C19.16726562 30.28550781 18.59234375 30.63742187 18 31 C14.40623162 29.80207721 14.19851647 29.0986446 12.44140625 25.87890625 C11.97283203 25.02490234 11.50425781 24.17089844 11.02148438 23.29101562 C10.54001953 22.39060547 10.05855469 21.49019531 9.5625 20.5625 C9.08490234 19.69689453 8.60730469 18.83128906 8.11523438 17.93945312 C4.95297364 12.11377937 2.32208258 6.20696094 0 0 Z " fill="#DEE2E6" transform="translate(128,277)"/>
<path d="M0 0 C4.52615993 3.67832017 8.39424999 7.41086363 12 12 C10.4324482 13.7021698 8.84540216 15.38640554 7.25 17.0625 C6.36828125 18.00222656 5.4865625 18.94195312 4.578125 19.91015625 C2 22 2 22 -0.03125 22.09375 C-2.73901462 20.58943632 -4.61026541 18.67163464 -6.75 16.4375 C-7.94882812 15.19806641 -7.94882812 15.19806641 -9.171875 13.93359375 C-9.77515625 13.29550781 -10.3784375 12.65742188 -11 12 C-7.49102731 7.81576108 -3.91939465 3.80411834 0 0 Z " fill="#213B51" transform="translate(61,440)"/>
<path d="M0 0 C4.52615993 3.67832017 8.39424999 7.41086363 12 12 C10.4324482 13.7021698 8.84540216 15.38640554 7.25 17.0625 C6.36828125 18.00222656 5.4865625 18.94195312 4.578125 19.91015625 C2 22 2 22 -0.03125 22.09375 C-2.73901462 20.58943632 -4.61026541 18.67163464 -6.75 16.4375 C-7.94882813 15.19806641 -7.94882813 15.19806641 -9.171875 13.93359375 C-9.77515625 13.29550781 -10.3784375 12.65742188 -11 12 C-7.49102731 7.81576108 -3.91939465 3.80411834 0 0 Z " fill="#213B51" transform="translate(98,402)"/>
<path d="M0 0 C3.66771845 1.83385923 5.46834996 3.25062829 8.25 6.125 C8.95640625 6.84945313 9.6628125 7.57390625 10.390625 8.3203125 C11.18726563 9.15175781 11.18726563 9.15175781 12 10 C10.53033642 13.39859703 8.61962486 15.64963709 6 18.25 C5.29875 18.95640625 4.5975 19.6628125 3.875 20.390625 C2 22 2 22 0 22 C-1.62109375 20.390625 -1.62109375 20.390625 -3.4375 18.25 C-4.03433594 17.55390625 -4.63117188 16.8578125 -5.24609375 16.140625 C-6.88667532 14.13831164 -8.44684965 12.07086713 -10 10 C-6.7 6.7 -3.4 3.4 0 0 Z " fill="#1D3951" transform="translate(135,365)"/>
<path d="M0 0 C1.03930664 0.02030273 1.03930664 0.02030273 2.09960938 0.04101562 C3.79591265 0.07611155 5.49181136 0.12991057 7.1875 0.1875 C7.4921875 6.828125 7.4921875 6.828125 4.75 10.0625 C3.904375 10.76375 3.05875 11.465 2.1875 12.1875 C1.8575 12.5175 1.5275 12.8475 1.1875 13.1875 C-3.81186425 13.752243 -7.63153393 13.94331828 -11.9375 11.1875 C-12.55625 10.5275 -13.175 9.8675 -13.8125 9.1875 C-13.625 6.375 -13.625 6.375 -12.8125 3.1875 C-8.77502185 -0.11589122 -5.00407535 -0.18675497 0 0 Z " fill="#F1F3F5" transform="translate(289.8125,209.8125)"/>
</svg>
